<mxfile host="app.diagrams.net" agent="Mozilla/5.0 (Windows NT 10.0; Win64; x64; rv:134.0) Gecko/20100101 Firefox/134.0" version="26.0.8">
  <diagram name="Pagina-1" id="5sI4SzSyTYNY-mzSEVjD">
    <mxGraphModel dx="1050" dy="566" grid="1" gridSize="10" guides="1" tooltips="1" connect="1" arrows="1" fold="1" page="1" pageScale="1" pageWidth="1200" pageHeight="1920" math="0" shadow="0">
      <root>
        <mxCell id="0" />
        <mxCell id="1" parent="0" />
        <mxCell id="y0f2MTl_34vHbHh856fC-1" value="" style="shape=cube;whiteSpace=wrap;html=1;boundedLbl=1;backgroundOutline=1;darkOpacity=0.05;darkOpacity2=0.1;" parent="1" vertex="1">
          <mxGeometry x="160" y="90" width="630" height="570" as="geometry" />
        </mxCell>
        <mxCell id="y0f2MTl_34vHbHh856fC-2" value="&lt;div align=&quot;left&quot;&gt;Dashboard&lt;/div&gt;" style="text;html=1;align=left;verticalAlign=middle;whiteSpace=wrap;rounded=0;fontSize=15;" parent="1" vertex="1">
          <mxGeometry x="190" y="110" width="170" height="30" as="geometry" />
        </mxCell>
        <mxCell id="y0f2MTl_34vHbHh856fC-4" value="Statistics" style="rounded=0;whiteSpace=wrap;html=1;verticalAlign=top;" parent="1" vertex="1">
          <mxGeometry x="200" y="150" width="360" height="110" as="geometry" />
        </mxCell>
        <mxCell id="y0f2MTl_34vHbHh856fC-5" value="Quicklinks" style="rounded=0;whiteSpace=wrap;html=1;verticalAlign=top;" parent="1" vertex="1">
          <mxGeometry x="580" y="150" width="190" height="110" as="geometry" />
        </mxCell>
        <mxCell id="sKM-g6KTSstUDI_hoVKj-1" value="Table&lt;br&gt;(filtered by newest finished assessments)" style="rounded=0;whiteSpace=wrap;html=1;verticalAlign=top;" vertex="1" parent="1">
          <mxGeometry x="295" y="270" width="375" height="120" as="geometry" />
        </mxCell>
        <mxCell id="sKM-g6KTSstUDI_hoVKj-2" value="&lt;div&gt;Table&amp;nbsp;&lt;/div&gt;&lt;div&gt;(filtered by will expire ion 2 days)&lt;/div&gt;" style="rounded=0;whiteSpace=wrap;html=1;verticalAlign=top;" vertex="1" parent="1">
          <mxGeometry x="295" y="400" width="375" height="120" as="geometry" />
        </mxCell>
        <mxCell id="sKM-g6KTSstUDI_hoVKj-3" value="&lt;div&gt;Table&amp;nbsp;&lt;/div&gt;&lt;div&gt;(filtered by has expired)&lt;/div&gt;" style="rounded=0;whiteSpace=wrap;html=1;verticalAlign=top;" vertex="1" parent="1">
          <mxGeometry x="295" y="530" width="375" height="120" as="geometry" />
        </mxCell>
        <mxCell id="sKM-g6KTSstUDI_hoVKj-4" value="&lt;div&gt;Total&amp;nbsp;&lt;/div&gt;&lt;div&gt;applicants&lt;/div&gt;" style="rounded=0;whiteSpace=wrap;html=1;" vertex="1" parent="1">
          <mxGeometry x="210" y="180" width="90" height="70" as="geometry" />
        </mxCell>
        <mxCell id="sKM-g6KTSstUDI_hoVKj-5" value="number of invitations expiring in 2 days" style="rounded=0;whiteSpace=wrap;html=1;" vertex="1" parent="1">
          <mxGeometry x="335" y="180" width="90" height="70" as="geometry" />
        </mxCell>
        <mxCell id="sKM-g6KTSstUDI_hoVKj-6" value="number of expired invitations" style="rounded=0;whiteSpace=wrap;html=1;" vertex="1" parent="1">
          <mxGeometry x="460" y="180" width="90" height="70" as="geometry" />
        </mxCell>
      </root>
    </mxGraphModel>
  </diagram>
</mxfile>
